<svg width="44" height="44" viewBox="0 0 44 44" xmlns="http://www.w3.org/2000/svg">
  <defs>
    <linearGradient id="bg" x1="6" y1="4" x2="38" y2="40" gradientUnits="userSpaceOnUse">
      <stop offset="0" stop-color="#FCFDFF" />
      <stop offset="1" stop-color="#E5EBFA" />
    </linearGradient>
    <linearGradient id="accent" x1="24" y1="24" x2="36" y2="36" gradientUnits="userSpaceOnUse">
      <stop offset="0" stop-color="#FF8A65" />
      <stop offset="1" stop-color="#FF7043" />
    </linearGradient>
    <filter id="tileShadow" x="-10%" y="-10%" width="120%" height="120%" color-interpolation-filters="sRGB">
      <feDropShadow dx="0" dy="1" stdDeviation="1.5" flood-color="#263060" flood-opacity="0.18" />
    </filter>
    <filter id="accentShadow" x="-20%" y="-20%" width="140%" height="140%" color-interpolation-filters="sRGB">
      <feDropShadow dx="0" dy="2" stdDeviation="1.8" flood-color="#802A12" flood-opacity="0.2" />
    </filter>
  </defs>
  <rect width="44" height="44" rx="10" fill="url(#bg)" />
  <g filter="url(#tileShadow)" fill="#5F6CF8">
    <rect x="10" y="11" width="9.5" height="9.5" rx="2.4" />
    <rect x="24.5" y="11" width="9.5" height="9.5" rx="2.4" />
    <rect x="10" y="24.5" width="9.5" height="9.5" rx="2.4" />
  </g>
  <g filter="url(#accentShadow)">
    <rect x="24.5" y="24.5" width="9.5" height="9.5" rx="2.4" fill="url(#accent)" transform="rotate(12 29.25 29.25)" />
  </g>
  <path d="M23.5 34.5H36C36.8284 34.5 37.5 35.1716 37.5 36C37.5 36.8284 36.8284 37.5 36 37.5H23.5" stroke="#2CC970" stroke-width="2" stroke-linecap="round" stroke-dasharray="3 2" />
  <circle cx="20" cy="35.5" r="2.25" fill="#2CC970" />
  <path d="m19.25 35.5 0.95 0.95 1.6-1.6" stroke="#FFFFFF" stroke-width="1.2" stroke-linecap="round" stroke-linejoin="round" />
</svg>
